<?xml version="1.0" encoding="UTF-8" standalone="no"?><!DOCTYPE svg PUBLIC "-//W3C//DTD SVG 1.1//EN" "http://www.w3.org/Graphics/SVG/1.1/DTD/svg11.dtd"><svg width="100%" height="100%" viewBox="0 0 1025 778" version="1.1" xmlns="http://www.w3.org/2000/svg" xmlns:xlink="http://www.w3.org/1999/xlink" xml:space="preserve" xmlns:serif="http://www.serif.com/" style="fill-rule:evenodd;clip-rule:evenodd;stroke-linejoin:round;stroke-miterlimit:2;"><g><path d="M497.303,768.907l-477.375,-282.034c-15.197,-8.542 -28.227,-22.541 -13.415,-31.723l479.072,-276.032c7.183,-4.457 18.092,-7.378 25.414,-3.116l501.037,290.749c15.197,8.819 17.923,33.394 2.782,42.295l-454.605,259.419c-19.394,11.245 -43.36,11.414 -62.91,0.442Z" style="fill:#5b36a0;fill-rule:nonzero;"/><path d="M497.303,755.89l-477.375,-282.042c-15.197,-8.546 -28.227,-22.545 -13.415,-31.728l479.072,-276.027c7.183,-4.453 18.092,-7.374 25.414,-3.116l501.037,290.749c15.197,8.823 17.923,33.394 2.782,42.299l-454.605,259.415c-19.393,11.247 -43.359,11.416 -62.91,0.446l0,0.004Z" style="fill:#6862e6;fill-rule:nonzero;"/><path d="M536.664,383.772l-94.196,53.736c0,-0 145.106,88.522 174.778,100.989l54.251,-77.921" style="fill:url(#_Linear1);fill-rule:nonzero;"/><path d="M504.123,641.573l-94.222,-53.628l-94.222,53.736c0,-0 49.071,29.945 95.979,57.44c29.78,-21.065 59.591,-42.355 92.465,-57.553l-0,0.005Z" style="fill:url(#_Linear2);fill-rule:nonzero;"/><path d="M301.122,310.416l-59.764,34.09c0,0 5.063,31.252 34.74,43.718l78.245,-50.092" style="fill:url(#_Linear3);fill-rule:nonzero;"/><ellipse cx="330.375" cy="319.127" rx="36.046" ry="25.379" style="fill:#68e1fd;"/><ellipse cx="330.349" cy="304.154" rx="27.002" ry="11.048" style="fill:#974c26;"/><path d="M329.375,285.733c0,-4.981 -0.169,-9.966 -0.558,-14.946c-0.113,-1.298 -0.234,-2.588 -0.364,-3.869l-0.277,-2.531c0,-0.749 -0.389,-2.783 -0.389,-2.588c-0.169,-1.021 -0.346,-2.034 -0.528,-3.029c-2.944,-16.911 -9.516,-32.985 -19.261,-47.115c-3.667,8.725 -5.497,18.113 -5.374,27.577c-0,2.783 0.221,5.565 0.446,8.179l-0,1.644c1.096,6.456 2.774,12.799 5.011,18.954c1.594,4.485 3.539,8.839 5.815,13.02c2.457,4.708 5.123,9.304 7.989,13.774c2.228,3.505 4.344,6.621 6.49,9.602c0.667,-6.205 0.97,-12.441 0.996,-18.672l0.004,0Zm-14.167,-56.021c0.142,-0.641 0.142,-1.306 -0,-1.947c0.683,0.705 1.363,1.428 2.033,2.172c-0.67,-0.191 -1.368,-0.267 -2.064,-0.225l0.031,0Z" style="fill:#999a1c;fill-rule:nonzero;"/><path d="M338.644,289.571c2.782,-4.197 5.236,-8.351 7.599,-12.882c0.61,-1.151 1.207,-2.302 1.783,-3.453l1.138,-2.311l1.086,-2.393l1.198,-2.782c6.672,-15.83 9.834,-32.919 9.269,-50.088c-7.823,5.357 -14.458,12.272 -19.485,20.312c-1.443,2.319 -2.79,4.697 -4.038,7.127l-0.553,1.025l-0.143,0.446c-0.528,1.255 -1.056,2.51 -1.558,3.787c-1.846,4.848 -3.343,9.823 -4.479,14.885c-1.084,4.641 -1.802,9.359 -2.146,14.112c-0.492,5.282 -0.733,10.584 -0.723,15.889c0,4.146 0,7.932 0.251,11.576c3.7,-4.925 7.43,-9.988 10.801,-15.25Zm18.369,-54.791c0.437,-0.489 0.762,-1.069 0.948,-1.701c0.203,0.965 0.381,1.895 0.528,2.787c-0.433,-0.433 -0.93,-0.801 -1.471,-1.086l-0.005,-0Z" style="fill:#999a1c;fill-rule:nonzero;"/><path d="M338.449,301.982c2.8,-1.389 5.582,-2.891 8.352,-4.505l2.086,-1.281l1.363,-0.865l1.337,-0.943l1.558,-1.143c8.701,-6.385 15.919,-14.579 21.156,-24.016c-5.942,0.381 -11.741,1.982 -17.037,4.704c-1.532,0.779 -3.007,1.644 -4.483,2.531l-0.636,0.39l-0.225,0.194l-2.06,1.532c-2.566,2.021 -4.985,4.228 -7.235,6.595c-2.081,2.155 -3.99,4.474 -5.712,6.928c-1.932,2.732 -3.787,5.517 -5.565,8.351c-1.333,2.225 -2.531,4.31 -3.591,6.344c3.591,-1.501 7.183,-3.063 10.688,-4.816l0.004,-0Zm27.608,-23.653c0.395,-0.122 0.757,-0.33 1.06,-0.61c-0.202,0.591 -0.425,1.176 -0.666,1.753c-0.073,-0.389 -0.204,-0.764 -0.389,-1.113l-0,-0.03l-0.005,0Zm-36.682,7.404c0,-4.981 -0.169,-9.966 -0.558,-14.946c-0.113,-1.298 -0.234,-2.588 -0.364,-3.869l-0.277,-2.531c0,-0.749 -0.389,-2.783 -0.389,-2.588c-0.169,-1.021 -0.346,-2.034 -0.528,-3.029c-2.944,-16.911 -9.516,-32.985 -19.261,-47.115c-3.667,8.725 -5.497,18.113 -5.374,27.577c-0,2.783 0.221,5.565 0.446,8.179l-0,1.644c1.096,6.456 2.774,12.799 5.011,18.954c1.594,4.485 3.539,8.839 5.815,13.02c2.457,4.708 5.123,9.304 7.989,13.774c2.228,3.505 4.344,6.621 6.49,9.602c0.667,-6.205 0.97,-12.441 0.996,-18.672l0.004,0Zm-14.167,-56.021c0.142,-0.641 0.142,-1.306 -0,-1.947c0.683,0.705 1.363,1.428 2.033,2.172c-0.67,-0.191 -1.368,-0.267 -2.064,-0.225l0.031,0Z" style="fill:#999a1c;fill-rule:nonzero;"/><path d="M338.644,289.571c2.782,-4.197 5.236,-8.351 7.599,-12.882c0.61,-1.151 1.207,-2.302 1.783,-3.453l1.138,-2.311l1.086,-2.393l1.198,-2.782c6.672,-15.83 9.834,-32.919 9.269,-50.088c-7.823,5.357 -14.458,12.272 -19.485,20.312c-1.443,2.319 -2.79,4.697 -4.038,7.127l-0.553,1.025l-0.143,0.446c-0.528,1.255 -1.056,2.51 -1.558,3.787c-1.846,4.848 -3.343,9.823 -4.479,14.885c-1.084,4.641 -1.802,9.359 -2.146,14.112c-0.492,5.282 -0.733,10.584 -0.723,15.889c0,4.146 0,7.932 0.251,11.576c3.7,-4.925 7.43,-9.988 10.801,-15.25Zm18.369,-54.791c0.437,-0.489 0.762,-1.069 0.948,-1.701c0.203,0.965 0.381,1.895 0.528,2.787c-0.433,-0.433 -0.93,-0.801 -1.471,-1.086l-0.005,-0Z" style="fill:#999a1c;fill-rule:nonzero;"/><path d="M338.449,301.982c2.8,-1.389 5.582,-2.891 8.352,-4.505l2.086,-1.281l1.363,-0.865l1.337,-0.943l1.558,-1.143c8.701,-6.385 15.919,-14.579 21.156,-24.016c-5.942,0.381 -11.741,1.982 -17.037,4.704c-1.532,0.779 -3.007,1.644 -4.483,2.531l-0.636,0.39l-0.225,0.194l-2.06,1.532c-2.566,2.021 -4.985,4.228 -7.235,6.595c-2.081,2.155 -3.99,4.474 -5.712,6.928c-1.932,2.732 -3.787,5.517 -5.565,8.351c-1.333,2.225 -2.531,4.31 -3.591,6.344c3.591,-1.501 7.183,-3.063 10.688,-4.816l0.004,-0Zm27.608,-23.653c0.395,-0.122 0.757,-0.33 1.06,-0.61c-0.202,0.591 -0.425,1.176 -0.666,1.753c-0.073,-0.389 -0.204,-0.764 -0.389,-1.113l-0,-0.03l-0.005,0Z" style="fill:#999a1c;fill-rule:nonzero;"/><path d="M574.073,362.789l-52.135,25.046c-4.148,1.994 -6.797,6.208 -6.797,10.81c0,4.266 2.276,8.222 5.962,10.368l123.561,72.074c5.516,3.223 12.688,1.505 16.145,-3.868l30.031,-46.696" style="fill:#a1482d;fill-rule:nonzero;"/><path d="M857.635,241.984l-415.721,-239.488c-2.845,-1.635 -6.07,-2.496 -9.351,-2.496c-10.288,-0 -18.756,8.462 -18.763,18.75l-0,249.142c-0,5.569 2.968,10.714 7.789,13.501l443.198,255.767c1.53,0.885 3.266,1.351 5.033,1.351c5.515,-0 10.052,-4.538 10.052,-10.053c0,-0.003 0,-0.006 0,-0.009l0,-248.116c-0.013,-15.823 -8.514,-30.48 -22.242,-38.349l0.005,0Z" style="fill:#f47b56;fill-rule:nonzero;"/><path d="M441.94,21.337l403.167,231.89c8.751,5.037 14.164,14.395 14.168,24.492l-0,186.752c-0.01,5.596 -4.617,10.195 -10.213,10.195c-1.777,-0 -3.524,-0.464 -5.067,-1.346l-411.159,-235.758c-3.129,-1.794 -5.064,-5.135 -5.063,-8.741l-0,-199.275c-0,-0.001 -0,-0.003 -0,-0.004c-0,-5.19 4.27,-9.46 9.459,-9.46c1.652,0 3.275,0.433 4.708,1.255Z" style="fill:#fff;fill-rule:nonzero;"/><path d="M607.788,353.912c4.751,-0.914 9.458,2.75 10.503,8.18c1.046,5.429 -1.963,10.579 -6.714,11.494c-4.752,0.915 -9.458,-2.75 -10.504,-8.179c-1.045,-5.429 1.964,-10.58 6.715,-11.495Z" style="fill:#ab643c;"/><path d="M550.304,274.712l187.357,112.539l92.556,-53.792l-165.371,-96.23" style="fill:url(#_Linear4);fill-rule:nonzero;"/><path d="M781.838,252.309l-202.559,-123.474c-1.067,-0.616 -2.277,-0.941 -3.509,-0.941c-3.848,0 -7.015,3.167 -7.015,7.015c0,0.081 0.001,0.163 0.004,0.244l0,70.348c-0.018,2.587 1.327,5.002 3.536,6.348l202.529,120.861c1.051,0.596 2.24,0.91 3.449,0.91c3.833,0 6.988,-3.155 6.988,-6.988c0,-0.008 0,-0.016 0,-0.024l1.056,-65.588c0.159,-3.488 -1.549,-6.81 -4.479,-8.711Z" style="fill:#e2ac00;fill-rule:nonzero;"/><path d="M733.377,288.511c7.266,10.161 20.04,12.999 28.504,6.374c8.46,-6.62 9.433,-20.23 2.168,-30.36c-7.266,-10.126 -20.04,-12.995 -28.504,-6.37c-8.46,6.621 -9.433,20.204 -2.168,30.361l0,-0.005Z" style="fill:#fff;fill-rule:nonzero;"/><path d="M713.502,239.76l-82.616,-49.729c-0.411,-0.188 -0.858,-0.286 -1.311,-0.286c-1.725,0 -3.145,1.421 -3.145,3.146c-0,1.001 0.477,1.944 1.284,2.536l82.616,49.729c0.411,0.189 0.858,0.286 1.311,0.286c1.725,0 3.145,-1.42 3.145,-3.146c0,-1.001 -0.477,-1.944 -1.284,-2.536Zm-3.397,20.204l-113.872,-68.544c-0.335,-0.117 -0.687,-0.177 -1.042,-0.177c-1.726,-0 -3.146,1.42 -3.146,3.146c-0,0.941 0.422,1.835 1.15,2.432l113.738,68.57c0.416,0.193 0.869,0.293 1.327,0.293c1.726,0 3.146,-1.42 3.146,-3.146c-0,-1.008 -0.485,-1.957 -1.301,-2.548l0,-0.026Z" style="fill:#f2f2f2;fill-rule:nonzero;"/><path d="M741.421,265.945l-202.446,-123.444c-1.068,-0.618 -2.28,-0.944 -3.514,-0.944c-3.848,0 -7.015,3.167 -7.015,7.015c0,0.082 0.002,0.164 0.005,0.246l-0,70.318c-0.03,2.597 1.298,5.016 3.505,6.375l202.533,120.86c1.059,0.609 2.26,0.929 3.481,0.929c3.834,-0 6.989,-3.155 6.989,-6.989c-0,-0.057 -0.001,-0.114 -0.002,-0.171l1.056,-65.597c0.094,-3.472 -1.654,-6.746 -4.592,-8.598Z" style="fill:#f47b56;fill-rule:nonzero;"/><path d="M692.96,302.151c7.266,10.156 20.04,12.995 28.504,6.374c8.46,-6.621 9.434,-20.234 2.168,-30.365c-7.265,-10.125 -20.039,-12.994 -28.504,-6.369c-8.459,6.62 -9.433,20.204 -2.168,30.36Z" style="fill:#fff;fill-rule:nonzero;"/><path d="M673.085,253.395l-82.676,-49.728c-0.416,-0.194 -0.869,-0.294 -1.327,-0.294c-1.726,0 -3.146,1.42 -3.146,3.146c0,1.008 0.484,1.957 1.301,2.548l82.616,49.729c0.415,0.193 0.868,0.293 1.326,0.293c1.726,0 3.146,-1.42 3.146,-3.146c0,-1.008 -0.484,-1.956 -1.3,-2.548l0.06,0Zm-3.423,20.343l-113.85,-68.652c-0.415,-0.193 -0.868,-0.294 -1.326,-0.294c-1.726,0 -3.146,1.421 -3.146,3.146c-0,1.008 0.484,1.957 1.3,2.548l113.877,68.54c0.415,0.193 0.868,0.293 1.326,0.293c1.726,0 3.146,-1.42 3.146,-3.146c0,-1.008 -0.484,-1.956 -1.301,-2.548l-0.026,0.113Z" style="fill:#f2f2f2;fill-rule:nonzero;"/><path d="M690.619,274.24l-202.498,-123.448c-1.068,-0.618 -2.28,-0.944 -3.514,-0.944c-3.848,0 -7.015,3.167 -7.015,7.015c0,0.082 0.002,0.164 0.005,0.246l-0,70.323c-0.017,2.585 1.327,4.998 3.535,6.344l202.529,120.86c1.059,0.609 2.26,0.929 3.481,0.929c3.834,-0 6.989,-3.155 6.989,-6.989c-0,-0.057 -0.001,-0.114 -0.002,-0.171l1.056,-65.597c0.091,-3.462 -1.645,-6.712 -4.566,-8.568Z" style="fill:#68e1fd;fill-rule:nonzero;"/><path d="M690.619,274.24l-202.498,-123.448c-1.068,-0.618 -2.28,-0.944 -3.514,-0.944c-3.848,0 -7.015,3.167 -7.015,7.015c0,0.082 0.002,0.164 0.005,0.246l-0,70.323c-0.017,2.585 1.327,4.998 3.535,6.344l202.529,120.86c1.059,0.609 2.26,0.929 3.481,0.929c3.834,-0 6.989,-3.155 6.989,-6.989c-0,-0.057 -0.001,-0.114 -0.002,-0.171l1.056,-65.597c0.091,-3.462 -1.645,-6.712 -4.566,-8.568Z" style="fill:#68e1fd;fill-rule:nonzero;"/><path d="M642.132,310.442c7.266,10.16 20.04,12.999 28.504,6.374c8.46,-6.621 9.434,-20.23 2.168,-30.36c-7.261,-10.126 -20.039,-12.995 -28.499,-6.374c-8.464,6.62 -9.356,20.208 -2.173,30.36Z" style="fill:#fff;fill-rule:nonzero;"/><path d="M622.257,261.686l-82.642,-49.724c-0.419,-0.197 -0.876,-0.299 -1.339,-0.299c-1.726,-0 -3.146,1.42 -3.146,3.146c0,1.011 0.488,1.963 1.309,2.553l82.616,49.729c0.419,0.197 0.876,0.299 1.339,0.299c1.726,0 3.146,-1.42 3.146,-3.146c-0,-1.011 -0.488,-1.963 -1.309,-2.553l0.026,-0l0,-0.005Zm-3.423,20.235l-113.876,-68.544c-0.415,-0.193 -0.868,-0.293 -1.326,-0.293c-1.726,-0 -3.146,1.42 -3.146,3.145c-0,1.008 0.484,1.957 1.3,2.548l113.872,68.544c0.419,0.197 0.876,0.299 1.339,0.299c1.726,0 3.146,-1.42 3.146,-3.146c0,-1.011 -0.488,-1.963 -1.309,-2.553Z" style="fill:#f2f2f2;fill-rule:nonzero;"/><path d="M424.847,267.338c-13.084,11.258 -22.982,25.761 -28.698,42.048c-10.074,27.824 15.115,73.299 15.115,73.299l39.192,-31.026" style="fill:#ff8f6f;fill-rule:nonzero;"/><path d="M420.62,635.255l-10.637,-5.872l2.787,-15.193c0,-0 15.838,1.501 17.227,7.122" style="fill:#003b94;fill-rule:nonzero;"/><path d="M424.514,635.03c2.393,-1.471 4.899,-2.783 7.378,-4.089c6.149,-3.367 15.029,-6.846 18.815,-13.164c1.585,-2.609 1.384,-5.946 -0.502,-8.347c-5.565,-6.733 -17.759,4.34 -23.99,-3.116c-1.225,-1.475 -1.813,-24.882 -1.813,-24.882l-23.714,6.405c0,-0 -4.007,47.028 -3.561,49.923c0.441,2.891 8.598,5.565 8.598,5.565c2.43,-0.515 4.749,-1.457 6.85,-2.782c2.476,-1.809 0.221,-23.878 3.393,-20.788c3.176,3.089 4.565,15.167 4.565,15.167c1.32,0.199 2.657,0.233 3.981,0.108Z" style="fill:#f47b56;fill-rule:nonzero;"/><path d="M465.905,657.99l-10.633,-5.79l2.783,-15.193c-0,0 15.838,1.502 17.231,7.123" style="fill:#003b94;fill-rule:nonzero;"/><path d="M469.916,657.765c2.393,-1.471 4.898,-2.782 7.374,-4.089c6.153,-3.367 15.033,-6.846 18.819,-13.163c1.584,-2.61 1.384,-5.947 -0.502,-8.348c-5.569,-6.733 -17.759,4.341 -23.995,-3.115c-1.224,-1.476 -1.809,-24.882 -1.809,-24.882l-23.713,6.404c0,0 -4.037,47.193 -3.592,49.98c0.442,2.783 8.599,5.565 8.599,5.565c2.429,-0.515 4.749,-1.458 6.85,-2.782c2.475,-1.809 0.22,-23.878 3.392,-20.789c3.177,3.09 4.566,15.167 4.566,15.167c1.328,0.182 2.678,0.199 4.011,0.052Z" style="fill:#f47b56;fill-rule:nonzero;"/><path d="M388.637,505.104l-6.989,93.417c0,-0 11.134,15.362 48.466,6.82l0.359,-62.975m1.281,-18.755c-0.809,8.041 -0,96.758 -0,96.758c-0,0 10.325,19.308 55.281,0l-0.641,-75.389" style="fill:#3e2928;fill-rule:nonzero;"/><path d="M385.158,535.962c3.059,2.12 4.119,-8.763 7.317,-6.898c11.647,6.762 24.008,12.212 36.856,16.249l0.276,-0c0.346,-0.168 0.725,-0.255 1.109,-0.255c1.001,-0 1.913,0.593 2.319,1.51c7.936,2.367 16.011,4.223 24.189,5.564c10.489,1.671 19.174,-6.097 29.945,-6.62c-0,-41.243 0.199,-158.625 -17.366,-183.671l-51.97,-17.473c-0.251,4.284 -25.219,33.224 -24.605,68.513c0.693,39.768 -4.483,77.276 -5.374,89.717c-0.139,2.116 -2.588,31.113 -2.696,33.364Z" style="fill:#3e2928;fill-rule:nonzero;"/><path d="M474.589,314.423l-4.786,47.31c0,-0 -38.772,1.558 -55.475,-9.966l-0,-40.127" style="fill:#ff8f6f;fill-rule:nonzero;"/><path d="M523.886,283.284l-3.951,5.396c2.106,-4.391 3.964,-8.897 5.565,-13.497c1.116,-3.141 -3.925,-4.396 -5.037,-1.25l-0.584,1.614c0.484,-1.671 0.939,-3.35 1.363,-5.037c0.062,-0.226 0.094,-0.46 0.094,-0.694c0,-1.425 -1.172,-2.597 -2.596,-2.597c-1.214,0 -2.273,0.851 -2.535,2.036c-1.092,4.368 -2.402,8.679 -3.925,12.917c0.851,-3.762 1.465,-7.573 1.839,-11.411c0.333,-3.311 -4.873,-3.172 -5.18,-0c-0.433,4.37 -1.211,8.698 -2.337,12.938c-0.001,-1.494 -0.142,-2.984 -0.419,-4.452c-0.077,-0.747 -0.471,-1.425 -1.082,-1.861c-0.141,-0.584 -0.309,-1.162 -0.502,-1.731c-0.359,-1.061 -1.36,-1.78 -2.48,-1.78c-1.414,0 -2.586,1.145 -2.618,2.559l-0.333,19.481c-0.943,2.021 -2.168,3.895 -3.643,5.569c2.501,1.731 4.92,3.592 7.235,5.565c2.068,1.744 4.037,3.605 5.902,5.565c1.671,-2.077 3.276,-4.193 4.817,-6.344c0.19,-0.163 0.357,-0.35 0.497,-0.558c4.637,-6.86 9.427,-13.615 14.367,-20.26c2.059,-2.281 -2.48,-4.812 -4.457,-2.168Z" style="fill:#ffb5a9;fill-rule:nonzero;"/><path d="M449.985,271.289c-0,-0 18.317,4.924 25.747,16.699c4.654,8.146 8.755,16.596 12.276,25.292l13.527,-21.008c0,-0 16.422,5.037 22.935,13.107c-0,-0 -19.482,42.58 -36.462,46.224c-16.98,3.643 -35.016,-24.99 -35.016,-24.99c0,-0 -3.73,11.965 -3.007,-0.809" style="fill:#ff8f6f;fill-rule:nonzero;"/><path d="M461.621,316.79c-5.325,-4.33 -9.344,-10.053 -11.61,-16.53c-2.199,-7.486 0.558,-14.055 3.115,-21.013c2.773,-6.896 4.392,-14.202 4.79,-21.624c0.225,-7.287 -0.61,-14.583 -1.112,-21.844c-0.071,-0.31 -0.071,-0.633 0,-0.943c-2.449,-8.213 -7.46,-15.167 -17.343,-16.002c-25.579,-2.173 -27.028,26.158 -26.829,37.677c0.19,11.524 1.419,19.313 -7.071,24.129c-8.49,4.812 -14.618,17.447 -6.517,27.66c8.101,10.212 0.835,6.486 -4.565,15.556c-5.396,9.075 -4.007,20.399 7.07,24.493c11.078,4.089 62.573,-3.592 67.307,-8.352c1.679,-1.916 2.549,-4.413 2.423,-6.958c-1.156,-6.402 -4.587,-12.175 -9.658,-16.249Z" style="fill:#007f68;fill-rule:nonzero;"/><path d="M486.784,83.139c4.335,6.238 6.841,13.566 7.235,21.152c0.484,3.472 -0.362,7.003 -2.367,9.879c-1.751,1.924 -4.606,2.42 -6.902,1.199c-1.408,-0.562 -2.679,-1.418 -3.73,-2.51c-0.944,-0.885 -1.751,-1.906 -2.393,-3.029l-0.667,-1.307c-0.181,0.342 -0.406,0.658 -0.67,0.943c-0.662,0.52 -1.45,0.853 -2.281,0.974c-1.393,0.26 -2.83,0.086 -4.119,-0.498c-3.077,-1.331 -5.639,-3.628 -7.296,-6.543c-1.996,-3.164 -3.111,-6.805 -3.228,-10.545c-0.411,-3.029 0.536,-6.084 2.587,-8.352c1.804,-1.739 4.521,-2.162 6.768,-1.056c1.117,0.446 2.142,1.087 3.029,1.896c0.762,0.645 1.437,1.385 2.008,2.198l0.502,0.891l0,-2.479l5.565,2.172l0.558,15.639c0.039,1.121 0.385,2.207 1,3.146c0.523,0.904 1.324,1.614 2.285,2.034c2.691,1.056 3.933,-1.264 3.73,-6.963c-0.282,-5.64 -2.144,-11.089 -5.375,-15.721c-2.904,-4.712 -7.22,-8.393 -12.332,-10.515c-3.788,-1.924 -8.39,-1.339 -11.576,1.471c-3.367,3.38 -5.018,8.116 -4.483,12.857c0.318,5.965 2.243,11.736 5.569,16.698c2.648,4.901 6.82,8.809 11.883,11.13c1.765,0.736 3.656,1.104 5.569,1.082c1.242,0.087 2.488,-0.143 3.618,-0.666l1.112,-0.611l3.371,6.262l-0.558,0.389c-0.528,0.295 -1.078,0.559 -1.645,0.779c-0.887,0.385 -1.822,0.649 -2.782,0.779c-1.228,0.165 -2.472,0.165 -3.7,0c-1.614,-0.193 -3.195,-0.596 -4.704,-1.198c-4.286,-1.843 -8.094,-4.64 -11.134,-8.179c-3.602,-3.982 -6.518,-8.534 -8.628,-13.471c-2.114,-4.713 -3.324,-9.782 -3.566,-14.942c-0.3,-4.337 0.586,-8.676 2.562,-12.549c1.64,-3.25 4.474,-5.744 7.906,-6.958c3.595,-1.185 7.507,-0.987 10.965,0.554c6.754,2.854 12.456,7.738 16.314,13.973l-0,-0.005Zm-12.277,19.789c0.913,-1.169 1.324,-2.648 1.143,-4.12c-0.045,-1.814 -0.553,-3.587 -1.476,-5.149c-0.756,-1.363 -1.941,-2.439 -3.371,-3.06c-1.119,-0.575 -2.484,-0.397 -3.419,0.446c-0.973,1.104 -1.422,2.578 -1.228,4.037c0.064,1.835 0.61,3.618 1.588,5.176c0.8,1.411 2.042,2.527 3.535,3.172c1.069,0.549 2.371,0.346 3.228,-0.502m340.928,281.54c4.341,6.234 6.848,13.561 7.235,21.148c0.486,3.472 -0.359,7.002 -2.362,9.879c-1.756,1.918 -4.607,2.413 -6.907,1.198c-1.403,-0.57 -2.673,-1.424 -3.73,-2.509c-0.939,-0.89 -1.745,-1.91 -2.393,-3.029l-0.666,-1.307c-0.189,0.337 -0.414,0.654 -0.671,0.943c-0.658,0.519 -1.445,0.861 -2.28,0.974c-1.381,0.277 -2.813,0.112 -4.094,-0.472c-3.079,-1.339 -5.64,-3.645 -7.291,-6.569c-2.015,-3.167 -3.141,-6.819 -3.259,-10.571c-0.428,-3.029 0.519,-6.093 2.592,-8.352c1.793,-1.732 4.496,-2.155 6.733,-1.056c1.117,0.442 2.147,1.082 3.034,1.891c0.761,0.658 1.432,1.407 2.008,2.229l0.528,0.887l-0,-2.475l5.564,2.142l0.559,15.638c0.047,1.121 0.393,2.207 0.999,3.146c0.524,0.909 1.324,1.619 2.285,2.034c2.782,1.056 3.925,-1.255 3.756,-6.958c-0.282,-5.649 -2.143,-11.107 -5.37,-15.751c-2.903,-4.696 -7.207,-8.365 -12.302,-10.49c-3.785,-1.926 -8.385,-1.351 -11.58,1.446c-3.35,3.419 -4.961,8.188 -4.371,12.938c0.312,5.967 2.235,11.738 5.565,16.699c2.752,4.785 6.971,8.562 12.03,10.771c1.761,0.735 3.652,1.112 5.565,1.112c1.242,0.073 2.484,-0.156 3.617,-0.671l1.112,-0.61l3.371,6.261l-0.562,0.39c-0.524,0.299 -1.073,0.558 -1.64,0.779c-0.894,0.368 -1.828,0.63 -2.783,0.779c-1.238,0.164 -2.492,0.164 -3.73,-0c-1.604,-0.204 -3.175,-0.615 -4.673,-1.225c-4.283,-1.835 -8.092,-4.623 -11.134,-8.152c-3.605,-3.992 -6.522,-8.555 -8.633,-13.502c-2.114,-4.711 -3.322,-9.779 -3.561,-14.937c-0.302,-4.33 0.584,-8.66 2.561,-12.523c1.644,-3.255 4.475,-5.757 7.906,-6.989c3.607,-1.17 7.523,-0.97 10.991,0.563c6.676,3.001 12.26,7.999 15.981,14.301Zm-12.276,19.785c0.921,-1.164 1.341,-2.644 1.168,-4.12c-0.048,-1.817 -0.566,-3.591 -1.502,-5.149c-0.741,-1.364 -1.917,-2.441 -3.34,-3.06c-1.115,-0.584 -2.483,-0.416 -3.423,0.42c-0.989,1.095 -1.448,2.57 -1.255,4.033c0.065,1.826 0.614,3.605 1.588,5.149c0.801,1.42 2.043,2.545 3.535,3.203c1.064,0.553 2.371,0.361 3.229,-0.476" style="fill:#f47b56;fill-rule:nonzero;"/><path d="M260.732,503.126l-94.222,-53.597l-94.196,53.71c-0,-0 52.416,32.723 99.315,60.218c29.784,-21.039 56.254,-45.107 89.103,-60.331Z" style="fill:url(#_Linear5);fill-rule:nonzero;"/></g><defs><linearGradient id="_Linear1" x1="0" y1="0" x2="1" y2="0" gradientUnits="userSpaceOnUse" gradientTransform="matrix(-46.7059,28.8811,-28.8811,-46.7059,582.59,440.8)"><stop offset="0" style="stop-color:#78b46a;stop-opacity:0.25"/><stop offset="0.03" style="stop-color:#7f3500;stop-opacity:0.25"/><stop offset="1" style="stop-color:#fff;stop-opacity:0.25"/></linearGradient><linearGradient id="_Linear2" x1="0" y1="0" x2="1" y2="0" gradientUnits="userSpaceOnUse" gradientTransform="matrix(-98.6201,37.6287,-37.6287,-98.6201,470.554,619.721)"><stop offset="0" style="stop-color:#78b46a;stop-opacity:0.25"/><stop offset="0.03" style="stop-color:#7f3500;stop-opacity:0.25"/><stop offset="1" style="stop-color:#fff;stop-opacity:0.25"/></linearGradient><linearGradient id="_Linear3" x1="0" y1="0" x2="1" y2="0" gradientUnits="userSpaceOnUse" gradientTransform="matrix(-66.7775,34.7236,-34.7236,-66.7775,332.492,327.491)"><stop offset="0" style="stop-color:#78b46a;stop-opacity:0.46"/><stop offset="0.03" style="stop-color:#7f3500;stop-opacity:0.46"/><stop offset="1" style="stop-color:#fff;stop-opacity:0.46"/></linearGradient><linearGradient id="_Linear4" x1="0" y1="0" x2="1" y2="0" gradientUnits="userSpaceOnUse" gradientTransform="matrix(-37.9395,-7.94516,7.94516,-37.9395,777.078,328.079)"><stop offset="0" style="stop-color:#fff;stop-opacity:0"/><stop offset="0.99" style="stop-color:#dc841e;stop-opacity:0.32"/><stop offset="1" style="stop-color:#dc841e;stop-opacity:0.32"/></linearGradient><linearGradient id="_Linear5" x1="0" y1="0" x2="1" y2="0" gradientUnits="userSpaceOnUse" gradientTransform="matrix(-98.5915,39.5171,-39.5171,-98.5915,227.161,480.975)"><stop offset="0" style="stop-color:#78b46a;stop-opacity:0.25"/><stop offset="0.03" style="stop-color:#7f3500;stop-opacity:0.25"/><stop offset="1" style="stop-color:#fff;stop-opacity:0.25"/></linearGradient></defs></svg>